HIERARCHY
ROOT Hips
{
	OFFSET 0 0 0
	CHANNELS 6 Xposition Yposition Zposition Yrotation Xrotation Zrotation
	JOINT Spine
	{
		OFFSET -0 8.38078 -2.67137
		CHANNELS 3 Yrotation Xrotation Zrotation
		JOINT Spine1
		{
			OFFSET -0 10.2701 0
			CHANNELS 3 Yrotation Xrotation Zrotation
			JOINT Spine2
			{
				OFFSET -0 10.2701 0
				CHANNELS 3 Yrotation Xrotation Zrotation
				JOINT Spine3
				{
					OFFSET -0 10.2701 0
					CHANNELS 3 Yrotation Xrotation Zrotation
					JOINT Neck
					{
						OFFSET -0 16.9472 3.67137
						CHANNELS 3 Yrotation Xrotation Zrotation
						JOINT Head
						{
							OFFSET -0 10.476 0
							CHANNELS 3 Yrotation Xrotation Zrotation
							End Site
							{
								OFFSET -0 15 0
							}
						}
					}
					JOINT LeftShoulder
					{
						OFFSET 1.74599 4.87741 3.49199
						CHANNELS 3 Yrotation Xrotation Zrotation
						JOINT LeftArm
						{
							OFFSET 19.9293 0 0
							CHANNELS 3 Yrotation Xrotation Zrotation
							JOINT LeftForeArm
							{
								OFFSET 25.2203 0 0
								CHANNELS 3 Yrotation Xrotation Zrotation
								JOINT LeftHand
								{
									OFFSET 22.6882 0 0
									CHANNELS 3 Yrotation Xrotation Zrotation
									End Site
									{
										OFFSET 15 0 0
									}
								}
							}
						}
					}
					JOINT RightShoulder
					{
						OFFSET -1.74599 4.87741 3.49199
						CHANNELS 3 Yrotation Xrotation Zrotation
						JOINT RightArm
						{
							OFFSET -19.9293 0 0
							CHANNELS 3 Yrotation Xrotation Zrotation
							JOINT RightForeArm
							{
								OFFSET -25.2203 0 0
								CHANNELS 3 Yrotation Xrotation Zrotation
								JOINT RightHand
								{
									OFFSET -22.6882 0 0
									CHANNELS 3 Yrotation Xrotation Zrotation
									End Site
									{
										OFFSET -15 0 0
									}
								}
							}
						}
					}
				}
			}
		}
	}
	JOINT LeftUpLeg
	{
		OFFSET 10.476 -3.49199 2
		CHANNELS 3 Yrotation Xrotation Zrotation
		JOINT LeftLeg
		{
			OFFSET -0 -42.329 2.44439
			CHANNELS 3 Yrotation Xrotation Zrotation
			JOINT LeftFoot
			{
				OFFSET -0 -39.8175 -2.44439
				CHANNELS 3 Yrotation Xrotation Zrotation
				JOINT LeftToeBase
				{
					OFFSET -0 -6.74129 15.714
					CHANNELS 3 Yrotation Xrotation Zrotation
					End Site
					{
						OFFSET -0 0 5
					}
				}
			}
		}
	}
	JOINT RightUpLeg
	{
		OFFSET -10.476 -3.49199 2
		CHANNELS 3 Yrotation Xrotation Zrotation
		JOINT RightLeg
		{
			OFFSET -0 -42.329 2.44439
			CHANNELS 3 Yrotation Xrotation Zrotation
			JOINT RightFoot
			{
				OFFSET -0 -39.8175 -2.44439
				CHANNELS 3 Yrotation Xrotation Zrotation
				JOINT RightToeBase
				{
					OFFSET -0 -6.74129 15.714
					CHANNELS 3 Yrotation Xrotation Zrotation
					End Site
					{
						OFFSET -0 0 5
					}
				}
			}
		}
	}
}
MOTION
Frames: 8
Frame Time: 0.00833333
29.925439 78.948596 526.312354 141.902079 8.652644 -13.075608 3.940970 0.587428 1.762695 3.991808 3.577652 0.962015 1.763321 5.460093 -0.906263 0.852117 7.414551 -0.273679 5.227647 5.809430 -2.318174 2.167360 0.552794 -2.588689 26.729096 7.475998 16.394038 37.366465 39.309679 -24.080888 -10.503609 39.808963 -1.953550 25.975908 -23.127010 -4.951692 -27.376405 10.906576 -20.359905 -16.699770 39.262697 38.318693 4.356810 29.760534 -4.918729 -23.771480 -15.577837 15.413939 84.471299 -42.203741 -51.984774 0.000000 36.324310 0.000000 15.248166 -15.089104 0.219548 0.000000 -18.577839 0.000000 -19.186386 14.901523 -24.332382 0.000000 51.870226 0.000000 -3.958013 12.075270 7.182115 0.000000 -4.281596 0.000000
31.809134 78.547412 524.296924 143.307782 7.226418 -13.940937 4.180527 0.576700 2.645265 4.396347 3.725258 1.448062 1.765258 5.504641 -0.925982 0.632454 7.755451 -0.267006 5.350625 6.397875 -2.664248 2.248891 0.563941 -2.170550 26.650938 8.227461 15.737453 37.902389 40.417830 -25.834570 -10.272753 39.833532 -1.539918 27.002151 -24.564239 -6.213914 -28.389723 11.663248 -20.937666 -18.235281 40.490249 37.415204 3.722170 29.135021 -4.345568 -26.445735 -19.494429 12.059906 84.011103 -39.277459 -50.567090 0.000000 30.632882 0.000000 15.506714 -13.570459 0.109054 0.000000 -18.624838 0.000000 -19.570890 17.242578 -25.967583 0.000000 53.521193 0.000000 -3.543727 11.305873 7.240760 0.000000 -4.724315 0.000000
33.677518 78.107031 522.230420 145.013923 5.828855 -14.731739 4.104163 0.627256 3.412737 4.595676 3.835678 1.820950 1.878868 5.765608 -0.698671 0.670283 7.899882 -0.380355 5.466499 6.237620 -2.824383 2.336011 1.291796 -1.756394 26.405919 8.671075 15.044166 38.101385 41.168526 -27.593285 -10.316364 39.673109 -1.573123 27.134270 -24.824790 -6.331657 -29.676284 12.218315 -21.114142 -19.969226 41.410340 35.910445 3.918423 28.836643 -3.624246 -29.125536 -22.869385 9.989305 82.736029 -37.135726 -48.762220 0.000000 26.441077 0.000000 15.166839 -11.791155 -0.456042 0.000000 -18.539384 0.000000 -20.028269 19.748394 -27.606613 0.000000 54.969114 0.000000 -3.311238 10.696002 7.602477 0.000000 -4.787313 0.000000
35.573438 77.643372 520.140283 146.956453 4.536671 -15.541436 3.817946 0.639207 4.029731 4.597990 3.830702 2.180007 1.823050 5.994258 -0.419770 0.580508 8.282001 -0.450379 5.899248 5.521440 -3.108017 2.577577 2.270014 -1.284280 26.664317 8.783479 14.177122 37.914838 41.699643 -29.369574 -10.648181 39.223205 -1.396509 26.896090 -24.420528 -6.729438 -30.399990 12.324326 -21.206863 -22.122581 41.690458 34.334436 4.271363 28.738442 -3.611838 -30.564971 -23.749198 9.036965 80.350334 -36.168169 -46.403831 0.000000 23.820299 0.000000 14.081905 -10.186157 -1.296465 0.000000 -18.535315 0.000000 -20.416484 22.381841 -28.986630 0.000000 56.239460 0.000000 -3.399081 10.067894 7.711315 0.000000 -4.507082 0.000000
37.460565 77.152362 518.063086 149.030234 3.400843 -16.366766 3.335754 0.498358 4.532954 4.421743 3.875467 2.447656 1.790247 6.337509 -0.052262 0.566692 8.482953 -0.719743 6.558389 4.434721 -2.796668 2.865634 3.266578 -1.214125 27.060797 8.500315 13.557370 37.587039 41.786041 -31.072556 -10.998162 38.752120 -1.489482 25.472113 -23.738873 -5.712518 -30.706271 12.218337 -21.057277 -24.104618 41.715880 33.045703 4.127777 28.904011 -3.963233 -30.014666 -24.348113 8.948311 76.849339 -36.175910 -43.467306 0.000000 22.487968 0.000000 12.785198 -8.770400 -1.710363 0.000000 -18.751659 0.000000 -20.500149 24.945256 -29.958577 0.000000 57.543597 0.000000 -3.896548 9.244788 7.368894 0.000000 -4.240464 0.000000
39.330951 76.615509 515.985400 151.063609 2.514739 -17.238174 2.939914 0.413422 4.995977 4.316029 3.726917 2.673063 1.794081 6.353677 0.115843 0.553849 8.651491 -0.877931 7.195128 3.308374 -1.805658 3.070370 3.854156 -1.688754 27.465948 8.037605 13.168937 36.985153 41.619854 -32.785846 -11.339498 38.219794 -1.136957 23.911055 -22.750127 -4.896789 -31.083299 12.240272 -20.717402 -25.203367 41.741043 32.313667 3.842200 28.838230 -4.057417 -28.909613 -25.143246 9.424651 72.234853 -36.882978 -39.994967 0.000000 21.996238 0.000000 12.135969 -7.409160 -1.810285 0.000000 -18.974176 0.000000 -20.011241 27.277576 -30.317505 0.000000 58.930690 0.000000 -4.795411 8.134218 6.364225 0.000000 -4.046467 0.000000
41.129117 76.054285 513.940967 152.847065 2.008071 -17.854199 2.757306 0.186552 5.181709 4.268338 3.335656 2.800095 1.707973 6.370043 0.138218 0.446647 8.244610 -0.753140 7.811002 2.906203 -1.003405 3.285707 3.619835 -1.978779 27.868468 7.857636 12.651664 36.206077 41.385342 -34.361409 -11.796103 37.734610 -0.837502 22.565510 -22.458307 -4.005594 -31.025464 12.348790 -20.694842 -26.132105 41.798805 32.153155 3.873811 28.901782 -3.938319 -28.429889 -26.033655 9.714259 67.872034 -37.086770 -37.029112 0.000000 21.921809 0.000000 11.760137 -7.276364 2.275466 0.000000 -15.709558 0.000000 -18.967425 28.785792 -30.465050 0.000000 60.647137 0.000000 -5.808330 6.663267 4.957800 0.000000 -3.668212 0.000000
42.765302 75.449030 511.868164 154.332845 1.727959 -17.986486 2.888060 -0.013745 5.127759 4.336405 2.751139 2.754406 1.732304 6.164475 0.151151 0.416126 7.744048 -1.086418 8.166132 2.325469 0.374150 3.378656 3.236406 -2.347884 27.905496 7.600259 12.426863 35.227412 40.902030 -35.810381 -12.666939 37.346197 -0.915159 21.921482 -22.907743 -2.829389 -31.086165 12.642807 -20.290945 -26.651712 41.661399 32.612779 3.951747 28.607664 -3.739895 -28.414707 -26.770901 9.470883 67.328491 -34.145283 -37.155510 0.000000 19.941128 0.000000 7.111706 -7.650637 20.686335 0.000000 -13.454613 0.000000 -17.585539 29.492235 -30.917674 0.000000 62.421807 0.000000 -6.689346 4.965085 3.098084 0.000000 -3.356545 0.000000
